<?xml version="1.0" encoding="UTF-8"?>
<svg width="150px" height="170px" viewBox="0 0 150 170" version="1.1" xmlns="http://www.w3.org/2000/svg" xmlns:xlink="http://www.w3.org/1999/xlink">
    <!-- Generator: Sketch 49.3 (51167) - http://www.bohemiancoding.com/sketch -->
    <title>Platform</title>
    <desc>Created with Sketch.</desc>
    <defs>
        <linearGradient x1="45.41922%" y1="10.0370763%" x2="53.7203723%" y2="90.9229343%" id="linearGradient-1">
            <stop stop-color="#C1B0FF" offset="0%"></stop>
            <stop stop-color="#5B2F88" offset="97.396586%"></stop>
        </linearGradient>
        <linearGradient x1="33.4720419%" y1="10.0370763%" x2="63.4235125%" y2="90.9229343%" id="linearGradient-2">
            <stop stop-color="#C1B0FF" offset="0%"></stop>
            <stop stop-color="#5B2F88" offset="97.396586%"></stop>
        </linearGradient>
        <linearGradient x1="36.9842487%" y1="10.0370763%" x2="60.5710033%" y2="90.9229343%" id="linearGradient-3">
            <stop stop-color="#C1B0FF" offset="0%"></stop>
            <stop stop-color="#5B2F88" offset="97.396586%"></stop>
        </linearGradient>
        <linearGradient x1="46.0969695%" y1="9.40368997%" x2="54.5088851%" y2="87.8464866%" id="linearGradient-4">
            <stop stop-color="#D8CFF6" offset="0%"></stop>
            <stop stop-color="#C6C9FB" offset="100%"></stop>
        </linearGradient>
        <linearGradient x1="41.0096425%" y1="9.40368997%" x2="60.385901%" y2="87.8464866%" id="linearGradient-5">
            <stop stop-color="#D8CFF6" offset="0%"></stop>
            <stop stop-color="#C6C9FB" offset="100%"></stop>
        </linearGradient>
        <linearGradient x1="38.4193264%" y1="9.40368997%" x2="63.3783033%" y2="87.8464866%" id="linearGradient-6">
            <stop stop-color="#D8CFF6" offset="0%"></stop>
            <stop stop-color="#C6C9FB" offset="100%"></stop>
        </linearGradient>
        <linearGradient x1="24.9374136%" y1="10.1628708%" x2="69.4333301%" y2="90.2939619%" id="linearGradient-7">
            <stop stop-color="#F9E422" offset="0%"></stop>
            <stop stop-color="#F1C40F" offset="100%"></stop>
        </linearGradient>
        <linearGradient x1="22.5569386%" y1="10.1628708%" x2="71.2791314%" y2="90.2939619%" id="linearGradient-8">
            <stop stop-color="#F9E422" offset="0%"></stop>
            <stop stop-color="#F1C40F" offset="100%"></stop>
        </linearGradient>
        <linearGradient x1="18.5911017%" y1="0%" x2="75.6753178%" y2="79.797846%" id="linearGradient-9">
            <stop stop-color="#DDD3ED" offset="0%"></stop>
            <stop stop-color="#C4B2FE" offset="99.1284321%"></stop>
        </linearGradient>
        <linearGradient x1="47.3442836%" y1="0%" x2="52.170925%" y2="79.797846%" id="linearGradient-10">
            <stop stop-color="#DDD3ED" offset="0%"></stop>
            <stop stop-color="#C4B2FE" offset="99.1284321%"></stop>
        </linearGradient>
        <linearGradient x1="46.237446%" y1="0%" x2="53.0757134%" y2="79.797846%" id="linearGradient-11">
            <stop stop-color="#DDD3ED" offset="0%"></stop>
            <stop stop-color="#C4B2FE" offset="99.1284321%"></stop>
        </linearGradient>
        <linearGradient x1="44.4701809%" y1="0%" x2="54.5203707%" y2="79.797846%" id="linearGradient-12">
            <stop stop-color="#DDD3ED" offset="0%"></stop>
            <stop stop-color="#C4B2FE" offset="99.1284321%"></stop>
        </linearGradient>
    </defs>
    <g id="Page-1" stroke="none" stroke-width="1" fill="none" fill-rule="evenodd">
        <g id="Platform">
            <g id="Base" transform="translate(0.000000, 72.000000)">
                <path d="M75,97.7419355 C116.421356,97.7419355 150,78.028022 150,53.7096774 C150,51.0435176 150,47.3338402 150,42.5806452 L0,42.5806452 C5.20417043e-16,46.6159173 7.80625564e-16,50.3255948 7.80625564e-16,53.7096774 C7.80625564e-16,78.028022 33.5786438,97.7419355 75,97.7419355 Z" id="Oval-3-Copy-4" fill="#3D42A2" fill-rule="nonzero"></path>
                <g id="Oval-3-Copy-3">
                    <g id="path-2-link" fill="#000000" fill-rule="nonzero">
                        <ellipse id="path-2" cx="75" cy="44.0322581" rx="75" ry="44.0322581"></ellipse>
                    </g>
                    <g id="path-2-link" fill="#F9F6FF">
                        <ellipse id="path-2" cx="75" cy="44.0322581" rx="75" ry="44.0322581"></ellipse>
                    </g>
                </g>
            </g>
            <g id="Map" transform="translate(73.000000, 120.000000) rotate(-21.000000) translate(-73.000000, -120.000000) translate(17.000000, 80.000000)" fill-rule="nonzero">
                <path d="M2.34545403,2.73880091 C5.00025972,3.79114085 6.71275555,4.20984301 7.4829415,3.9949074 C8.67059228,3.66346997 8.02694195,3.58270575 10.1622522,3.58270575 C12.2975625,3.58270575 12.8628413,3.9069329 14.4903695,3.9949074 C16.1178977,4.08288189 15.7758618,3.46043779 17.7879827,3.9949074 C19.8001035,4.529377 19.7129255,5.23201302 21.0855958,5.7467644 C22.4582662,6.26151578 22.2164165,5.60777318 24.383209,6.46811728 C26.5500015,7.32846137 27.1701396,8.30636036 28.0930238,8.52912551 C29.015908,8.75189066 28.7944224,7.58463336 30.3601329,7.91082304 C31.9258434,8.23701273 32.0170345,9.32368907 33.0394436,9.55962963 C34.0618527,9.79557018 34.4851446,8.62801338 35.7187543,9.14742798 C36.952364,9.66684259 35.9118662,10.3637038 36.9553592,11.2084362 C37.9988523,12.0531687 37.9497692,11.0275788 40.0468716,12.651142 C41.4449399,13.7335174 42.9962194,14.1090962 44.7007102,13.7778784 C43.8232845,16.3907395 43.0964083,17.8700681 42.5200815,18.2158642 C41.6555913,18.7345583 40.5336473,18.5376397 39.2224683,18.6280659 C37.9112893,18.718492 37.8226968,18.730429 36.5431576,18.6280659 C35.2636183,18.5257027 35.7185761,17.6663214 34.0699477,18.2158642 C32.4213193,18.765407 33.6004499,19.591392 31.5967378,20.2768724 C29.5930258,20.9623529 27.972318,20.5049796 26.2381164,20.8951749 C24.5039148,21.2853703 24.9549564,22.1317799 23.3527049,22.1317799 C21.7504534,22.1317799 21.2917303,21.1425026 20.0550917,20.8951749 C18.8184531,20.6478472 18.879304,21.4017301 17.1696802,20.8951749 C15.4600564,20.3886197 15.9411175,19.5271583 14.4903695,19.2463683 C13.0396215,18.9655784 12.659907,20.3714278 10.7805547,19.65857 C8.90120231,18.9457122 9.22049217,17.5256134 8.51344562,16.9792593 C7.80639906,16.4329051 7.46317671,16.154856 6.24633656,16.154856 C5.02949641,16.154856 4.55140241,16.9792593 3.77312668,16.9792593 C2.99485095,16.9792593 2.85376349,17.7410647 2.53652174,16.154856 C2.21927999,14.5686472 3.09078139,13.7095908 2.94872339,12.8572428 C2.80666538,12.0048948 1.71211845,12.2306491 1.71211845,11.2084362 C1.71211845,10.1862234 2.94872339,9.78714956 2.94872339,9.14742798 C2.94872339,8.50770641 2.18998184,8.80681691 1.71211845,7.91082304 C1.37781075,7.28399611 0.395568064,7.24655461 0.474972485,6.8467576 C0.496591024,6.73790941 0.99363243,5.46694163 1.9660967,3.03385424" id="Path-13-Copy" fill="url(#linearGradient-1)"></path>
                <path d="M39.8407708,22.9561831 C39.5703539,22.6120163 39.9000111,21.1654846 40.8297424,18.6165881 C41.4874316,19.3521255 42.1325929,19.6747062 42.7652263,19.58433 C43.7141764,19.4487657 42.6140199,19.3843992 43.7329682,20.068201 C44.3029426,20.4165186 45.4319748,20.2552283 47.120065,19.58433 C46.2518181,21.7268608 45.8176946,22.8508119 45.8176946,22.9561831 C45.8176946,23.6261314 45.0264408,23.8116535 44.1688881,24.1927881 C43.3113353,24.5739227 43.4305001,24.9828812 42.1078798,24.6049897 C40.7852595,24.2270982 40.246396,23.4724335 39.8407708,22.9561831 Z" id="Path-15-Copy" fill="url(#linearGradient-2)"></path>
                <path d="M52.8162155,28.7270062 C52.8162155,28.0959992 52.2492653,27.8275314 51.7857114,27.4904013 C51.3221575,27.1532712 51.8667552,26.6389834 50.5491064,27.0781996 C49.2314577,27.5174159 50.025753,28.0179675 48.0758966,28.7270062 C46.1260401,29.4360449 44.5314205,29.3554992 43.7477793,29.5514095 C42.964138,29.7473198 43.0739313,30.0159404 42.3050735,30.169712 C41.7925016,30.2722263 40.978144,30.4534431 39.8620005,30.7133623 C39.2107677,32.181935 38.7198201,33.0999226 38.3891579,33.4673251 C37.8931644,34.0184289 36.9464521,33.8059766 36.9464521,34.2917284 C36.9464521,34.7774802 37.102176,35.138378 38.3891579,35.3222325 C39.6761397,35.5060871 40.0783341,34.3403951 41.2745694,34.9100309 C42.4708046,35.4796667 42.4231911,36.5009887 42.7172751,37.3832408 C43.0113592,38.2654928 43.3464386,37.916905 42.7172751,39.2381482 C42.0881117,40.5593914 40.7493892,40.6870126 40.6562669,41.7113581 C40.5631446,42.7357036 41.8772811,43.3116668 42.3050735,43.7723663 C42.7328659,44.2330658 43.1792286,42.9551047 43.3355776,44.5967696 C43.4919267,46.2384345 42.9568816,47.6931527 42.7172751,48.1004836 C42.4776687,48.5078145 41.2745694,46.4534835 41.2745694,48.1004836 C41.2745694,49.7474837 42.7172751,51.6892669 42.7172751,52.2225001 C42.7172751,52.7557332 41.8728839,52.1826565 41.2745694,52.8408025 C40.6762548,53.4989485 40.3466833,53.3131915 40.6562669,54.4896091 C40.9658505,55.6660267 41.8695324,55.3956521 42.3050735,56.7567182 C42.7406146,58.1177843 41.9977587,58.6323812 42.3050735,59.6421297 C42.6123883,60.6518782 41.8799453,60.16287 43.7477793,61.4970371 C45.6156133,62.8312042 46.1642399,62.6857758 48.0758966,63.7641462 C49.9875532,64.8425166 50.3947889,65.0112454 51.7857114,66.0312552 C53.1766339,67.051265 52.7388709,67.5890074 54.2589213,68.2983643 C55.7789716,69.0077211 56.2375,68.159251 57.9687361,68.9166667 C59.6999721,69.6740825 59.5429831,70.5055872 60.8541476,71.1837758 C62.1653122,71.8619644 62.3925776,71.087834 63.94566,72.0081791 C65.4987423,72.9285242 64.010902,73.578401 66.4188698,74.481389 C68.8268376,75.3843769 69.4219445,74.9487234 72.1896929,75.0996914 C74.9574413,75.2506595 74.819918,74.3799091 77.7544151,75.0996914 C80.6889122,75.8194737 80.240622,76.8044329 83.1130365,77.7790022 C85.985451,78.7535714 85.4235752,78.4461238 89.2960612,79.0156071 C93.1685473,79.5850903 95.9670358,79.8894085 97.1278925,79.8400104 C98.2887492,79.7906122 100.341035,79.8844196 100.829742,79.0156071 C101.318449,78.1467946 102.765226,73.7778784 101.797484,73.2940074 C100.829742,72.8101364 97.5992874,75.990104 97.1278925,75.0996914 C96.6564976,74.2092789 96.5288397,73.6876571 97.1278925,73.0386832 C97.7269453,72.3897094 98.4245384,73.2439756 99.6011024,72.4203807 C100.777666,71.5967859 99.6966359,69.4779356 101.249909,70.1532717 C102.803182,70.8286078 103.942671,74.0256745 104.341421,74.481389 C104.740172,74.9371035 104.970134,76.0115293 105.578026,75.0996914 C106.185918,74.1878536 108.571678,71.8070637 108.571678,70.8746526 C108.571678,69.9422415 106.58735,70.1155694 107.120065,69.4230397 C107.65278,68.73051 107.48105,70.241167 108.051236,69.3288684 C108.621423,68.4165698 107.978364,67.2628537 107.639034,66.8556585 C107.299705,66.4484633 105.838092,67.9966744 105.990228,66.8556585 C106.142363,65.7146426 107.94265,64.2799281 108.051236,63.7641462 C108.159822,63.2483642 106.814631,63.5982282 106.814631,62.9397429 C106.814631,62.2812576 108.935768,63.1923892 108.051236,61.4970371 C107.166705,59.801685 105.656897,59.1162703 104.341421,58.1994239 C103.025946,57.2825775 102.929869,57.7646941 101.249909,56.7567182 C99.5699492,55.7487423 99.469745,55.1015717 98.1583966,54.4896091 C96.8470483,53.8776465 95.6640444,53.8049555 95.0668843,53.8713066 C94.4697241,53.9376578 94.9681647,54.5381027 94.4485818,54.9018108 C93.9289989,55.2655188 93.8076195,54.7589592 93.005876,55.3140124 C92.2041326,55.8690656 92.7720017,56.1439383 91.7692711,56.7567182 C90.7665405,57.369498 89.7668043,57.6595786 89.2960612,57.5811215 C88.8253182,57.5026643 88.7565928,57.0038668 89.2960612,56.3445165 C89.8355296,55.6851662 90.7128354,55.6426123 91.1509686,55.3140124 C91.5891018,54.9854125 91.0999952,55.605069 91.7692711,54.4896091 C92.438547,53.3741492 93.005876,52.5317579 93.005876,52.2225001 C93.005876,51.9132423 92.6967248,52.2225001 91.7692711,52.2225001 C90.8418174,52.2225001 90.9448678,52.2225001 89.9143637,52.2225001 C88.8838596,52.2225001 87.9983709,52.415854 87.8533555,52.2225001 C87.70834,52.0291461 88.6583042,51.5803131 89.2960612,51.3980968 C89.9338182,51.2158805 90.738767,51.9318428 90.738767,51.3980968 C90.738767,50.8643507 90.1569261,50.6101551 89.2960612,49.7492902 C88.4351963,48.8884253 88.1889518,48.2324479 87.4411538,48.1004836 C86.6933558,47.9685192 86.3023652,48.8171305 85.7923472,49.1309877 C85.2823293,49.4448449 85.0845997,50.0720467 84.7618431,49.7492902 C84.4390866,49.4265336 84.5054719,48.8695973 84.7618431,48.1004836 C85.0182143,47.3313699 86.1072508,47.72845 85.7923472,46.6577778 C85.4774437,45.5871057 84.9506405,45.6040186 83.731339,44.5967696 C82.5120375,43.5895205 82.7555496,43.2209776 81.0520283,42.7418622 C79.348507,42.2627468 78.390676,43.0446878 77.1361126,42.7418622 C75.8815493,42.4390365 75.608691,41.5992989 75.0751044,41.2991564 C74.5415178,40.9990139 74.4787432,40.9893938 73.8384995,40.8869548 C73.1982557,40.7845158 73.9453018,41.6482483 72.4988441,40.8869548 C71.0523864,40.1256612 71.2005063,39.0188405 69.9225838,38.8259465 C68.6446613,38.6330526 67.7874806,40.4377056 67.0371723,40.0625515 C66.286864,39.6873973 67.305243,37.751838 67.0371723,37.3832408 C66.7691016,37.0146436 66.7610395,37.3378845 65.3883657,37.7954424 C64.0156919,38.2530004 63.5720743,38.6298058 62.709055,38.8259465 C61.8460357,39.0220873 62.3767225,38.4287531 60.8541476,38.8259465 C59.3315727,39.22314 58.6226057,39.8757316 57.9687361,40.0625515 C57.3148664,40.2493714 56.2845112,41.4311599 56.5260303,40.0625515 C56.7675494,38.6939431 58.4645933,37.7016597 58.5870385,36.5588375 C58.7094838,35.4160153 57.9718189,34.7707993 57.1443328,34.2917284 C56.3168467,33.8126575 56.1138287,34.2917284 54.6711229,34.2917284 C53.2284171,34.2917284 53.3034994,34.0206948 51.7857114,34.2917284 C50.2679233,34.562762 49.9864637,35.1918929 48.9002998,35.3222325 C47.814136,35.4525722 47.3060692,35.3425956 46.6331908,34.9100309 C45.9603124,34.4774662 45.4279618,34.5107501 46.0148883,33.4673251 C46.6018149,32.4239002 46.9841789,32.4718002 48.4880982,31.6124177 C49.9920175,30.7530352 50.9958133,30.6963107 51.7857114,30.169712 C52.5756094,29.6431133 52.8162155,29.3580132 52.8162155,28.7270062 Z" id="Path-16-Copy" fill="url(#linearGradient-3)"></path>
                <path d="M3.08739033,4.32811729 C2.60952694,3.43212342 0.807790865,3.74037269 2.67518869,2.47320988 C4.54258651,1.20604707 7.6705626,0.743639074 8.85821339,0.412201647 C10.0458642,0.0807642189 9.40221383,1.15367685e-16 11.5375241,0 C13.6728343,0 14.2381132,0.324227151 15.8656414,0.412201647 C17.4931695,0.500176142 17.1511337,-0.122267958 19.1632546,0.412201647 C21.1753754,0.946671251 21.0881974,1.64930726 22.4608677,2.16405864 C23.8335381,2.67881003 23.5916884,2.02506743 25.7584809,2.88541153 C27.9252734,3.74575562 28.5454115,4.72365461 29.4682957,4.94641976 C30.3911799,5.16918491 30.1696943,4.0019276 31.7354048,4.32811729 C33.3011153,4.65430698 33.3923064,5.74098332 34.4147155,5.97692388 C35.4371245,6.21286443 35.8604165,5.04530763 37.0940262,5.56472223 C38.3276359,6.08413683 37.2871381,6.780998 38.3306311,7.62573046 C39.3741242,8.47046292 39.3250411,7.44487307 41.4221435,9.06843623 C43.5192459,10.6919994 44.2801087,11.5829423 44.7197566,12.5721502 C45.1594046,13.5613582 44.7598436,14.1144643 43.8953534,14.6331585 C43.0308631,15.1518526 41.9089192,14.954934 40.5977402,15.0453601 C39.2865612,15.1357862 39.1979687,15.1477232 37.9184295,15.0453601 C36.6388902,14.942997 37.093848,14.0836157 35.4452196,14.6331585 C33.7965912,15.1827013 34.9757217,16.0086863 32.9720097,16.6941667 C30.9682977,17.3796471 29.3475899,16.9222738 27.6133883,17.3124692 C25.8791867,17.7026645 26.3302283,18.5490741 24.7279768,18.5490741 C23.1257253,18.5490741 22.6670022,17.5597969 21.4303636,17.3124692 C20.193725,17.0651414 20.2545759,17.8190244 18.5449521,17.3124692 C16.8353283,16.805914 17.3163894,15.9444525 15.8656414,15.6636626 C14.4148934,15.3828726 14.0351789,16.788722 12.1558266,16.0758642 C10.2764742,15.3630064 10.5957641,13.9429077 9.8887175,13.3965535 C9.18167095,12.8501994 8.8384486,12.5721502 7.62160845,12.5721502 C6.4047683,12.5721502 5.9266743,13.3965535 5.14839857,13.3965535 C4.37012283,13.3965535 4.22903538,14.158359 3.91179363,12.5721502 C3.59455187,10.9859415 4.46605328,10.1268851 4.32399527,9.27453705 C4.18193727,8.42218901 3.08739033,8.6479433 3.08739033,7.62573046 C3.08739033,6.60351763 4.32399527,6.2044438 4.32399527,5.56472223 C4.32399527,4.92500066 3.56525373,5.22411116 3.08739033,4.32811729 Z" id="Path-13" fill="url(#linearGradient-4)"></path>
                <path d="M41.2160426,19.3734774 C40.8104174,18.8572271 40.5429236,18.8099915 41.2160426,18.1368725 C41.8891617,17.4637534 42.5342016,17.2419326 43.4831517,17.1063683 C44.4321018,16.970804 44.4252116,16.8347682 45.5441599,17.51857 C46.6631083,18.2023718 47.1929665,18.7035292 47.1929665,19.3734774 C47.1929665,20.0434256 46.4017127,20.2289478 45.5441599,20.6100823 C44.6866071,20.9912169 44.805772,21.4001755 43.4831517,21.022284 C42.1605314,20.6443925 41.6216679,19.8897277 41.2160426,19.3734774 Z" id="Path-15" fill="url(#linearGradient-5)"></path>
                <path d="M55.6431003,25.1443004 C55.6431003,24.5132934 55.07615,24.2448256 54.6125962,23.9076955 C54.1490423,23.5705654 54.69364,23.0562776 53.3759912,23.4954939 C52.0583425,23.9347101 52.8526378,24.4352617 50.9027813,25.1443004 C48.9529249,25.8533392 47.3583053,25.7727934 46.5746641,25.9687037 C45.7910228,26.1646141 45.9008161,26.4332346 45.1319583,26.5870062 C44.3631005,26.7407778 44.9547544,25.3477618 43.4831517,26.5870062 C42.011549,27.8262506 41.7120361,29.3335156 41.2160426,29.8846194 C40.7200492,30.4357232 39.7733369,30.2232709 39.7733369,30.7090227 C39.7733369,31.1947745 39.9290608,31.5556722 41.2160426,31.7395268 C42.5030245,31.9233813 42.9052189,30.7576893 44.1014542,31.3273251 C45.2976894,31.896961 45.2500759,32.918283 45.5441599,33.800535 C45.838244,34.6827871 46.1733234,34.3341993 45.5441599,35.6554424 C44.9149965,36.9766856 43.576274,37.1043068 43.4831517,38.1286523 C43.3900294,39.1529978 44.7041659,39.728961 45.1319583,40.1896605 C45.5597507,40.6503601 46.0061134,39.3723989 46.1624624,41.0140638 C46.3188114,42.6557287 45.7837664,44.1104469 45.5441599,44.5177778 C45.3045535,44.9251088 44.1014542,42.8707778 44.1014542,44.5177778 C44.1014542,46.1647779 45.5441599,48.1065612 45.5441599,48.6397943 C45.5441599,49.1730274 44.6997687,48.5999508 44.1014542,49.2580968 C43.5031396,49.9162428 43.1735681,49.7304858 43.4831517,50.9069034 C43.7927353,52.083321 44.6964171,51.8129463 45.1319583,53.1740124 C45.5674994,54.5350785 44.8246435,55.0496754 45.1319583,56.0594239 C45.4392731,57.0691725 44.7068301,56.5801642 46.5746641,57.9143314 C48.442498,59.2484985 48.9911247,59.10307 50.9027813,60.1814404 C52.814438,61.2598108 53.2216737,61.4285396 54.6125962,62.4485495 C56.0035186,63.4685593 55.5657557,64.0063017 57.085806,64.7156585 C58.6058564,65.4250154 59.0643848,64.5765452 60.7956209,65.333961 C62.5268569,66.0913768 62.3698678,66.9228815 63.6810324,67.6010701 C64.9921969,68.2792586 65.2194624,67.5051283 66.7725447,68.4254733 C68.3256271,69.3458184 66.8377868,69.9956953 69.2457546,70.8986832 C71.6537224,71.8016712 72.2488293,71.3660176 75.0165777,71.5169857 C77.7843261,71.6679538 77.6468028,70.7972034 80.5812999,71.5169857 C83.515797,72.236768 83.0675068,73.2217272 85.9399213,74.1962964 C88.8123358,75.1708656 88.25046,74.8634181 92.122946,75.4329013 C95.9954321,76.0023846 98.7939206,76.3067028 99.9547773,76.2573046 C101.115634,76.2079065 101.320978,75.8895122 101.809685,75.0206997 C102.298392,74.1518872 102.265744,73.8211359 101.809685,72.9596915 C101.353626,72.098247 100.426172,72.4073983 99.9547773,71.5169857 C99.4833824,70.6265731 99.3557245,70.1049513 99.9547773,69.4559775 C100.55383,68.8070036 101.251423,69.6612698 102.427987,68.837675 C103.604551,68.0140802 102.523521,65.8952298 104.076794,66.5705659 C105.630067,67.245902 106.769556,70.4429687 107.168306,70.8986832 C107.567056,71.3543977 107.797019,72.4288235 108.404911,71.5169857 C109.012803,70.6051479 108.817113,69.3578845 108.817113,68.4254733 C108.817113,67.4930622 107.872196,67.2630956 108.404911,66.5705659 C108.937626,65.8780363 110.307934,66.6584612 110.878121,65.7461626 C111.448308,64.8338641 110.805249,63.680148 110.465919,63.2729528 C110.12659,62.8657575 108.664977,64.4139686 108.817113,63.2729528 C108.969248,62.1319369 110.769535,60.6972224 110.878121,60.1814404 C110.986707,59.6656584 109.641516,60.0155224 109.641516,59.3570371 C109.641516,58.6985518 111.762652,59.6096834 110.878121,57.9143314 C109.993589,56.2189793 108.483781,55.5335646 107.168306,54.6167182 C105.852831,53.6998718 105.756754,54.1819883 104.076794,53.1740124 C102.396834,52.1660365 102.29663,51.5188659 100.985281,50.9069034 C99.6739331,50.2949408 98.4909292,50.2222498 97.8937691,50.2886009 C97.2966089,50.354952 97.7950495,50.955397 97.2754666,51.319105 C96.7558837,51.682813 96.6345043,51.1762535 95.8327608,51.7313067 C95.0310174,52.2863598 95.5988865,52.5612326 94.5961559,53.1740124 C93.5934253,53.7867922 92.5936891,54.0768729 92.122946,53.9984157 C91.6522029,53.9199585 91.5834776,53.4211611 92.122946,52.7618108 C92.6624144,52.1024605 93.5397202,52.0599066 93.9778534,51.7313067 C94.4159866,51.4027068 93.9268799,52.0223633 94.5961559,50.9069034 C95.2654318,49.7914434 95.8327608,48.9490521 95.8327608,48.6397943 C95.8327608,48.3305365 95.5236096,48.6397943 94.5961559,48.6397943 C93.6687022,48.6397943 93.7717526,48.6397943 92.7412485,48.6397943 C91.7107444,48.6397943 90.8252557,48.8331482 90.6802402,48.6397943 C90.5352248,48.4464404 91.485189,47.9976073 92.122946,47.815391 C92.760703,47.6331747 93.5656518,48.349137 93.5656518,47.815391 C93.5656518,47.281645 92.9838109,47.0274493 92.122946,46.1665844 C91.2620811,45.3057196 91.0158366,44.6497422 90.2680386,44.5177778 C89.5202406,44.3858135 89.12925,45.2344247 88.619232,45.548282 C88.109214,45.8621392 87.9114845,46.489341 87.5887279,46.1665844 C87.2659713,45.8438279 87.3323567,45.2868915 87.5887279,44.5177778 C87.8450991,43.7486642 88.9341356,44.1457442 88.619232,43.0750721 C88.3043284,42.0044 87.7775253,42.0213129 86.5582238,41.0140638 C85.3389223,40.0068148 85.5824344,39.6382718 83.8789131,39.1591564 C82.1753918,38.6800411 81.2175608,39.4619821 79.9629974,39.1591564 C78.7084341,38.8563308 78.4355758,38.0165931 77.9019892,37.7164507 C77.3684026,37.4163082 77.305628,37.406688 76.6653843,37.304249 C76.0251405,37.20181 76.7721866,38.0655426 75.3257289,37.304249 C73.8792712,36.5429555 74.0273911,35.4361348 72.7494686,35.2432408 C71.4715461,35.0503468 70.6143654,36.8549999 69.8640571,36.4798457 C69.1137488,36.1046916 70.1321278,34.1691322 69.8640571,33.800535 C69.5959864,33.4319379 69.5879243,33.7551787 68.2152505,34.2127367 C66.8425767,34.6702946 66.3989591,35.0471 65.5359398,35.2432408 C64.6729205,35.4393815 65.2036073,34.8460473 63.6810324,35.2432408 C62.1584575,35.6404342 61.4494905,36.2930258 60.7956209,36.4798457 C60.1417512,36.6666656 59.111396,37.8484541 59.3529151,36.4798457 C59.5944342,35.1112373 61.2914781,34.1189539 61.4139233,32.9761317 C61.5363686,31.8333096 60.7987036,31.1880936 59.9712176,30.7090227 C59.1437315,30.2299518 58.9407135,30.7090227 57.4980077,30.7090227 C56.0553019,30.7090227 56.1303842,30.4379891 54.6125962,30.7090227 C53.0948081,30.9800563 52.8133485,31.6091871 51.7271846,31.7395268 C50.6410208,31.8698665 50.132954,31.7598898 49.4600756,31.3273251 C48.7871972,30.8947605 48.2548466,30.9280443 48.8417731,29.8846194 C49.4286997,28.8411944 49.8110637,28.8890945 51.314983,28.029712 C52.8189023,27.1703295 53.8226981,27.1136049 54.6125962,26.5870062 C55.4024942,26.0604075 55.6431003,25.7753074 55.6431003,25.1443004 Z" id="Path-16" fill="url(#linearGradient-6)"></path>
            </g>
            <g id="Trace" transform="translate(19.000000, 68.000000)">
                <path d="M2.90322581,33.8709677 C9.03225806,24.1935484 17.5806452,20.3225806 28.5483871,22.2580645 C39.516129,24.1935484 45.8064516,33.5483871 47.4193548,50.3225806" id="Path-17" stroke="#3B3C93" stroke-dasharray="5"></path>
                <path d="M25.1612903,30 C31.2903226,20.3225806 39.8387097,16.4516129 50.8064516,18.3870968 C61.7741935,20.3225806 68.0645161,29.6774194 69.6774194,46.4516129" id="Path-17-Copy" stroke="#3B3C93" stroke-dasharray="5"></path>
                <path d="M50.8663359,50.0688 C58.2561577,37.3107333 68.2069558,31.6638825 80.7187302,33.1282476 C93.2305047,34.5926127 101.172253,43.5743898 104.543974,60.073579" id="Path-17-Copy-2" stroke="#3B3C93" stroke-dasharray="5" transform="translate(77.705155, 46.487833) rotate(-20.000000) translate(-77.705155, -46.487833) "></path>
                <path d="M15.3635555,46.4549954 C17.7319343,26.8342704 29.675328,14.8710157 51.1937366,10.5652313 C72.7121451,6.25944692 90.3136726,20.4910958 103.998319,53.2601778" id="Path-17-Copy-3" stroke="#3B3C93" stroke-dasharray="5" transform="translate(59.680937, 31.537657) rotate(13.000000) translate(-59.680937, -31.537657) "></path>
                <g id="Oval-5" transform="translate(0.000000, 32.000000)">
                    <g id="path-7-link" fill="#000000" fill-rule="nonzero">
                        <circle id="path-7" cx="2.41935484" cy="3.3225806" r="2.41935484"></circle>
                    </g>
                    <g id="path-7-link" fill="url(#linearGradient-8)">
                        <circle id="path-7" cx="2.41935484" cy="3.3225806" r="2.41935484"></circle>
                    </g>
                </g>
                <g id="Oval-5-Copy" transform="translate(45.000000, 46.000000)">
                    <g id="path-9-link" fill="#000000" fill-rule="nonzero">
                        <circle id="path-9" cx="2.4193548" cy="2.8709677" r="2.41935484"></circle>
                    </g>
                    <g id="path-9-link" fill="url(#linearGradient-8)">
                        <circle id="path-9" cx="2.4193548" cy="2.8709677" r="2.41935484"></circle>
                    </g>
                </g>
                <g id="Oval-5-Copy-3" transform="translate(22.000000, 29.000000)">
                    <g id="path-11-link" fill="#000000" fill-rule="nonzero">
                        <circle id="path-11" cx="2.6774194" cy="2.4516129" r="2.41935484"></circle>
                    </g>
                    <g id="path-11-link" fill="url(#linearGradient-8)">
                        <circle id="path-11" cx="2.6774194" cy="2.4516129" r="2.41935484"></circle>
                    </g>
                </g>
                <g id="Oval-5-Copy-2" transform="translate(67.000000, 44.000000)">
                    <g id="path-13-link" fill="#000000" fill-rule="nonzero">
                        <circle id="path-13" cx="3.1612903" cy="2.4516129" r="2.41935484"></circle>
                    </g>
                    <g id="path-13-link" fill="url(#linearGradient-8)">
                        <circle id="path-13" cx="3.1612903" cy="2.4516129" r="2.41935484"></circle>
                    </g>
                </g>
                <g id="Oval-5-Copy-5" transform="translate(51.000000, 58.000000)">
                    <g id="path-15-link" fill="#000000" fill-rule="nonzero">
                        <circle id="path-15" cx="2.7096774" cy="2.483871" r="2.41935484"></circle>
                    </g>
                    <g id="path-15-link" fill="url(#linearGradient-8)">
                        <circle id="path-15" cx="2.7096774" cy="2.483871" r="2.41935484"></circle>
                    </g>
                </g>
                <g id="Oval-5-Copy-4" transform="translate(105.000000, 48.000000)">
                    <g id="path-17-link" fill="#000000" fill-rule="nonzero">
                        <circle id="path-17" cx="2.903226" cy="2.8064516" r="2.41935484"></circle>
                    </g>
                    <g id="path-17-link" fill="url(#linearGradient-8)">
                        <circle id="path-17" cx="2.903226" cy="2.8064516" r="2.41935484"></circle>
                    </g>
                </g>
                <g id="Oval-5-Copy-7" transform="translate(10.000000, 34.000000)">
                    <g id="path-19-link" fill="#000000" fill-rule="nonzero">
                        <circle id="path-19" cx="3.0645161" cy="3.2580645" r="2.41935484"></circle>
                    </g>
                    <g id="path-19-link" fill="url(#linearGradient-8)">
                        <circle id="path-19" cx="3.0645161" cy="3.2580645" r="2.41935484"></circle>
                    </g>
                </g>
                <g id="Oval-5-Copy-6" transform="translate(96.000000, 62.000000)">
                    <g id="path-21-link" fill="#000000" fill-rule="nonzero">
                        <circle id="path-21" cx="2.7096774" cy="2.8387097" r="2.41935484"></circle>
                    </g>
                    <g id="path-21-link" fill="url(#linearGradient-8)">
                        <circle id="path-21" cx="2.7096774" cy="2.8387097" r="2.41935484"></circle>
                    </g>
                </g>
            </g>
            <g id="Wi-Fi" transform="translate(40.000000, 0.000000)" fill-rule="nonzero">
                <circle id="Oval-3-Copy" fill="#BEA0EA" cx="36.9354839" cy="50.483871" r="5.32258065"></circle>
                <path d="M70.1305771,11.8121449 C72.2169262,13.4820486 72.5545218,16.5270931 70.8846181,18.6134422 C69.2147144,20.6997912 66.1696698,21.0373869 64.0833208,19.3674831 C56.4188565,13.2328829 46.9222243,9.83870968 36.8935544,9.83870968 C26.7732563,9.83870968 17.195568,13.2955277 9.49798587,19.5332277 C7.42175341,21.215693 4.37472682,20.8964817 2.69226148,18.8202492 C1.00979615,16.7440168 1.32900748,13.6969902 3.40523994,12.0145248 C12.8109914,4.39261782 24.5345867,0.161290323 36.8935544,0.161290323 C49.140497,0.161290323 60.7649993,4.3159815 70.1305771,11.8121449 Z" id="Oval-4-Copy-5" fill="#BEA0EA"></path>
                <path d="M59.3588692,22.1557759 C61.5057455,23.7471128 61.9560992,26.7775333 60.3647623,28.9244096 C58.7734255,31.0712859 55.743005,31.5216395 53.5961287,29.9303027 C48.6701768,26.2790216 43.1469157,24.3548387 37.427693,24.3548387 C31.4363411,24.3548387 25.6592544,26.4676124 20.5651481,30.4594087 C18.4616859,32.1077041 15.4202855,31.7387186 13.7719901,29.6352565 C12.1236946,27.5317944 12.4926801,24.4903939 14.5961423,22.8420985 C21.3473496,17.5517801 29.2068904,14.6774194 37.427693,14.6774194 C45.28007,14.6774194 52.8078305,17.2999258 59.3588692,22.1557759 Z" id="Oval-4-Copy-4" fill="#BEA0EA"></path>
                <path d="M50.2116247,33.3948516 C52.5048707,34.766877 53.2516675,37.7381666 51.8796421,40.0314125 C50.5076166,42.3246585 47.5363271,43.0714553 45.2430812,41.6994299 C42.6380543,40.1408691 39.9426075,39.3548387 37.2053571,39.3548387 C34.2210533,39.3548387 31.2829049,40.290087 28.4619946,42.1420615 C26.2280589,43.6086774 23.2281691,42.9866418 21.7615532,40.7527061 C20.2949374,38.5187704 20.916973,35.5188806 23.1509086,34.0522648 C27.5028586,31.1951373 32.2708764,29.6774194 37.2053571,29.6774194 C41.7421382,29.6774194 46.1434487,30.9609038 50.2116247,33.3948516 Z" id="Oval-4-Copy-3" fill="#BEA0EA"></path>
                <circle id="Oval-3" fill="url(#linearGradient-9)" cx="35.483871" cy="51.4516129" r="5.32258065"></circle>
                <path d="M68.6789642,12.7798868 C70.7653133,14.4497905 71.1029089,17.4948351 69.4330052,19.5811841 C67.7631015,21.6675332 64.7180569,22.0051288 62.6317079,20.3352251 C54.9672436,14.2006248 45.4706114,10.8064516 35.4419415,10.8064516 C25.3216434,10.8064516 15.7439551,14.2632697 8.04637297,20.5009696 C5.97014051,22.1834349 2.92311391,21.8642236 1.24064858,19.7879912 C-0.441816751,17.7117587 -0.122605425,14.6647321 1.95362703,12.9822668 C11.3593785,5.36035976 23.0829738,1.12903226 35.4419415,1.12903226 C47.6888841,1.12903226 59.3133864,5.28372344 68.6789642,12.7798868 Z" id="Oval-4" fill="url(#linearGradient-10)"></path>
                <path d="M57.9072563,23.1235178 C60.0541326,24.7148547 60.5044863,27.7452752 58.9131494,29.8921515 C57.3218126,32.0390278 54.2913921,32.4893815 52.1445158,30.8980446 C47.2185639,27.2467635 41.6953028,25.3225806 35.9760801,25.3225806 C29.9847282,25.3225806 24.2076415,27.4353544 19.1135352,31.4271506 C17.010073,33.0754461 13.9686726,32.7064606 12.3203771,30.6029984 C10.6720817,28.4995363 11.0410672,25.4581359 13.1445294,23.8098404 C19.8957367,18.519522 27.7552774,15.6451613 35.9760801,15.6451613 C43.8284571,15.6451613 51.3562176,18.2676678 57.9072563,23.1235178 Z" id="Oval-4-Copy" fill="url(#linearGradient-11)"></path>
                <path d="M48.7600118,34.3625935 C51.0532578,35.734619 51.8000546,38.7059085 50.4280292,40.9991545 C49.0560037,43.2924004 46.0847142,44.0391972 43.7914682,42.6671718 C41.1864414,41.1086111 38.4909946,40.3225806 35.7537442,40.3225806 C32.7694404,40.3225806 29.831292,41.257829 27.0103817,43.1098034 C24.776446,44.5764193 21.7765562,43.9543837 20.3099403,41.720448 C18.8433244,39.4865124 19.4653601,36.4866226 21.6992957,35.0200067 C26.0512457,32.1628793 30.8192635,30.6451613 35.7537442,30.6451613 C40.2905253,30.6451613 44.6918358,31.9286457 48.7600118,34.3625935 Z" id="Oval-4-Copy-2" fill="url(#linearGradient-12)"></path>
            </g>
        </g>
    </g>
</svg>