<?xml version="1.0" encoding="UTF-8"?>
<svg width="150px" height="175px" viewBox="0 0 150 175" version="1.1" xmlns="http://www.w3.org/2000/svg" xmlns:xlink="http://www.w3.org/1999/xlink">
    <!-- Generator: Sketch 49.3 (51167) - http://www.bohemiancoding.com/sketch -->
    <title>Users</title>
    <desc>Created with Sketch.</desc>
    <defs>
        <linearGradient x1="30.877152%" y1="-14.6106303%" x2="91.9718829%" y2="112.979316%" id="linearGradient-1">
            <stop stop-color="#DBCEFC" offset="0%"></stop>
            <stop stop-color="#BFADFD" offset="100%"></stop>
        </linearGradient>
        <linearGradient x1="50%" y1="0%" x2="50%" y2="100%" id="linearGradient-2">
            <stop stop-color="#FBC561" offset="0%"></stop>
            <stop stop-color="#FFD995" offset="100%"></stop>
        </linearGradient>
        <linearGradient x1="50%" y1="0%" x2="50%" y2="100%" id="linearGradient-3">
            <stop stop-color="#FDC456" offset="0%"></stop>
            <stop stop-color="#FCC563" offset="100%"></stop>
        </linearGradient>
        <linearGradient x1="34.7500252%" y1="0%" x2="59.1449831%" y2="100%" id="linearGradient-4">
            <stop stop-color="#E1D7F2" offset="0%"></stop>
            <stop stop-color="#C2C8FA" offset="100%"></stop>
        </linearGradient>
        <linearGradient x1="22.5569386%" y1="37.2285762%" x2="71.2791314%" y2="62.9178803%" id="linearGradient-5">
            <stop stop-color="#FFE6C5" offset="0%"></stop>
            <stop stop-color="#FFD78C" offset="100%"></stop>
        </linearGradient>
        <linearGradient x1="27.2270276%" y1="10.0370763%" x2="68.4955261%" y2="90.9229343%" id="linearGradient-6">
            <stop stop-color="#C0AFFE" offset="0%"></stop>
            <stop stop-color="#3D2F72" offset="100%"></stop>
        </linearGradient>
        <linearGradient x1="22.5569386%" y1="25.2056503%" x2="71.2791314%" y2="75.0786792%" id="linearGradient-7">
            <stop stop-color="#F9E422" offset="0%"></stop>
            <stop stop-color="#F9D336" offset="93.5038837%"></stop>
            <stop stop-color="#F1C40F" offset="100%"></stop>
        </linearGradient>
    </defs>
    <g id="Page-1" stroke="none" stroke-width="1" fill="none" fill-rule="evenodd">
        <g id="Users" transform="translate(0.000000, -5.000000)">
            <g id="Base" transform="translate(0.000000, 81.774194)">
                <path d="M75,97.7419355 C116.421356,97.7419355 150,78.028022 150,53.7096774 C150,51.0435176 150,47.3338402 150,42.5806452 L0,42.5806452 C5.20417043e-16,46.6159173 7.80625564e-16,50.3255948 7.80625564e-16,53.7096774 C7.80625564e-16,78.028022 33.5786438,97.7419355 75,97.7419355 Z" id="Oval-3-Copy-4" fill="#3D42A2" fill-rule="nonzero"></path>
                <g id="Oval-3-Copy-3">
                    <g id="path-2-link" fill="#000000" fill-rule="nonzero">
                        <ellipse id="path-2" cx="75" cy="44.0322581" rx="75" ry="44.0322581"></ellipse>
                    </g>
                    <g id="path-2-link" fill="#F9F6FF">
                        <ellipse id="path-2" cx="75" cy="44.0322581" rx="75" ry="44.0322581"></ellipse>
                    </g>
                </g>
            </g>
            <g id="Group-2" transform="translate(17.419355, 0.000000)">
                <g id="User_1" transform="translate(88.808322, 108.753378) rotate(1.000000) translate(-88.808322, -108.753378) translate(62.808322, 66.753378)" fill-rule="nonzero">
                    <path d="M2.9023315,49.6508972 L33.1279904,63.7292229 C39.8498309,66.8600813 44.2877378,73.4530047 44.6585506,80.8589424 L44.7888563,83.4614306 L51.3870968,81.2650771 L51.387095,73.758102 C51.387095,66.6006397 47.5622504,59.9888028 41.35763,56.4206167 C36.2689693,53.4942027 32.7695051,51.5260401 30.8592375,50.516129 C28.4856174,49.2612549 24.4342672,47.3017207 18.7051869,44.6375263 L18.7051857,44.6375291 C15.7344766,43.2560602 12.2754807,43.4173762 9.4462406,45.0693354 C6.20642875,46.9610225 4.35259081,48.1491097 3.88472679,48.6335971 C3.2297966,49.3117971 2.9023315,49.6508972 2.9023315,49.6508972 Z" id="Path-12" fill="url(#linearGradient-1)"></path>
                    <polygon id="Path-10" fill="url(#linearGradient-2)" points="18.3958944 41.7307153 18.3958944 51.9803647 30.8592375 59.3015428 30.8592375 48.3197756"></polygon>
                    <polygon id="Path-11" fill="url(#linearGradient-3)" points="30.8592375 59.3015428 30.8592375 48.3197756 37.457478 45.3913043 37.457478 54.9088359"></polygon>
                    <path d="M7.78300965,48.0277557 C14.5551629,50.0287048 19.4617878,51.8343196 22.5028845,53.4446003 C25.3676673,54.9615216 30.0207454,58.0442154 36.4621187,62.6926818 C41.7002626,66.4728271 44.7787773,72.3780744 44.7787773,78.6458032 L44.7787773,83.4614306 L0.995125879,60.0336606 L0.995125539,52.8041213 C0.995125539,50.0426974 3.3405606,47.804121 6.23380137,47.804121 C6.75903019,47.804121 7.28127271,47.8795089 7.78300965,48.0277557 Z" id="Path-14" fill="url(#linearGradient-4)"></path>
                    <path d="M18.9190508,15.1078379 L19.1464847,4.66043676 L43.3400331,15.6422039 L43.3400331,29.2823618 C44.7367038,30.5734228 45.5394465,32.3944008 45.5394465,34.3112081 C45.5394465,34.6491412 45.4477098,34.9807356 45.2740227,35.2706175 C44.8633635,35.956003 44.0823514,36.2828042 43.3400331,36.1484924 L43.3400331,37.2784937 C43.3400331,41.0682197 41.1977662,44.532324 37.8071892,46.2252538 L31.6098278,49.3196233 L25.8253101,44.5058986 C21.1419598,40.6085366 18.4906063,34.7888633 18.6232134,28.6974255 L18.7666292,22.1094754 C17.1528841,20.8097278 16.2139333,18.8487583 16.2139333,16.7756993 C16.2139333,16.4377663 16.3056701,16.1061719 16.4793572,15.81629 C16.9853685,14.9717628 18.0536863,14.671674 18.9190508,15.1078379 Z" id="Combined-Shape-Copy" fill="url(#linearGradient-3)"></path>
                    <path d="M22.2308855,46.6815333 L23.8944282,47.5876578 C27.8630537,49.7493508 32.8326587,48.2845427 34.9943518,44.3159172 C35.6484783,43.1150144 35.9912023,41.7693229 35.9912023,40.4018257 L35.9912023,16.8387097 L11.797654,5.8569425 L11.797654,29.1180217 C11.797654,36.4411005 15.7999365,43.1786234 22.2308855,46.6815333 Z" id="Combined-Shape" fill="url(#linearGradient-5)"></path>
                    <path d="M9.59824047,19.0349681 L11.797654,19.0349681 L11.797654,13.9101118 C12.7751711,15.3743565 14.485826,16.8386011 16.9296188,18.3028458 C20.5953079,20.4992128 25.1948537,19.6454235 28.659824,21.2313351 C32.1247943,22.8172468 33.7917889,24.1598245 34.5249267,26.3561915 C35.0136852,27.8204362 35.0136852,29.7727624 34.5249267,32.2131702 L36.7243402,34.4095372 L44.7888563,30.0168032 L44.7888563,23.3966535 C44.7888563,16.9787998 41.708953,10.9508039 36.5083862,7.19009251 L29.9036863,2.41400351 C25.998016,-0.410323045 20.8295159,-0.778366009 16.5630499,1.46403209 C12.2802742,3.7150023 9.59824047,8.15456029 9.59824047,12.9928486 L9.59824047,19.0349681 Z" id="Path-7" fill="url(#linearGradient-6)"></path>
                    <path d="M34.5249267,38.802244 L35.3645393,39.3053107 C36.2488816,39.8351778 37.3953248,39.5478189 37.925192,38.6634767 C38.0988791,38.3735948 38.1906158,38.0420003 38.1906158,37.7040673 C38.1906158,35.6219055 37.2434011,33.6528197 35.616623,32.3532079 L34.5249267,31.4810659 L34.5249267,38.802244 Z" id="Path-9" fill="#FFDA99"></path>
                    <path d="M12.5307918,19.0703818 L11.6911792,18.5673151 C10.8068369,18.037448 9.66039365,18.3248069 9.13052651,19.2091492 C8.95683937,19.499031 8.86510264,19.8306255 8.86510264,20.1685585 C8.86510264,22.2507203 9.81231734,24.2198061 11.4390954,25.5194179 L12.5307918,26.3915599 L12.5307918,19.0703818 Z" id="Path-9-Copy" fill="#FFE2B4"></path>
                </g>
                <g id="User_2" transform="translate(26.808322, 108.753378) scale(-1, 1) rotate(1.000000) translate(-26.808322, -108.753378) translate(0.808322, 66.753378)" fill-rule="nonzero">
                    <path d="M2.9023315,49.6508972 L33.1279904,63.7292229 C39.8498309,66.8600813 44.2877378,73.4530047 44.6585506,80.8589424 L44.7888563,83.4614306 L51.3870968,81.2650771 L51.387095,73.758102 C51.387095,66.6006397 47.5622504,59.9888028 41.35763,56.4206167 C36.2689693,53.4942027 32.7695051,51.5260401 30.8592375,50.516129 C28.4856174,49.2612549 24.4342672,47.3017207 18.7051869,44.6375263 L18.7051857,44.6375291 C15.7344766,43.2560602 12.2754807,43.4173762 9.4462406,45.0693354 C6.20642875,46.9610225 4.35259081,48.1491097 3.88472679,48.6335971 C3.2297966,49.3117971 2.9023315,49.6508972 2.9023315,49.6508972 Z" id="Path-12" fill="url(#linearGradient-1)"></path>
                    <polygon id="Path-10" fill="url(#linearGradient-2)" points="18.3958944 41.7307153 18.3958944 51.9803647 30.8592375 59.3015428 30.8592375 48.3197756"></polygon>
                    <polygon id="Path-11" fill="url(#linearGradient-3)" points="30.8592375 59.3015428 30.8592375 48.3197756 37.457478 45.3913043 37.457478 54.9088359"></polygon>
                    <path d="M7.78300965,48.0277557 C14.5551629,50.0287048 19.4617878,51.8343196 22.5028845,53.4446003 C25.3676673,54.9615216 30.0207454,58.0442154 36.4621187,62.6926818 C41.7002626,66.4728271 44.7787773,72.3780744 44.7787773,78.6458032 L44.7787773,83.4614306 L0.995125879,60.0336606 L0.995125539,52.8041213 C0.995125539,50.0426974 3.3405606,47.804121 6.23380137,47.804121 C6.75903019,47.804121 7.28127271,47.8795089 7.78300965,48.0277557 Z" id="Path-14" fill="url(#linearGradient-4)"></path>
                    <path d="M18.9190508,15.1078379 L19.1464847,4.66043676 L43.3400331,15.6422039 L43.3400331,29.2823618 C44.7367038,30.5734228 45.5394465,32.3944008 45.5394465,34.3112081 C45.5394465,34.6491412 45.4477098,34.9807356 45.2740227,35.2706175 C44.8633635,35.956003 44.0823514,36.2828042 43.3400331,36.1484924 L43.3400331,37.2784937 C43.3400331,41.0682197 41.1977662,44.532324 37.8071892,46.2252538 L31.6098278,49.3196233 L25.8253101,44.5058986 C21.1419598,40.6085366 18.4906063,34.7888633 18.6232134,28.6974255 L18.7666292,22.1094754 C17.1528841,20.8097278 16.2139333,18.8487583 16.2139333,16.7756993 C16.2139333,16.4377663 16.3056701,16.1061719 16.4793572,15.81629 C16.9853685,14.9717628 18.0536863,14.671674 18.9190508,15.1078379 Z" id="Combined-Shape-Copy" fill="url(#linearGradient-3)"></path>
                    <path d="M22.2308855,46.6815333 L23.8944282,47.5876578 C27.8630537,49.7493508 32.8326587,48.2845427 34.9943518,44.3159172 C35.6484783,43.1150144 35.9912023,41.7693229 35.9912023,40.4018257 L35.9912023,16.8387097 L11.797654,5.8569425 L11.797654,29.1180217 C11.797654,36.4411005 15.7999365,43.1786234 22.2308855,46.6815333 Z" id="Combined-Shape" fill="url(#linearGradient-5)"></path>
                    <path d="M9.59824047,19.0349681 L11.797654,19.0349681 L11.797654,13.9101118 C12.7751711,15.3743565 14.485826,16.8386011 16.9296188,18.3028458 C20.5953079,20.4992128 25.1948537,19.6454235 28.659824,21.2313351 C32.1247943,22.8172468 33.7917889,24.1598245 34.5249267,26.3561915 C35.0136852,27.8204362 35.0136852,29.7727624 34.5249267,32.2131702 L36.7243402,34.4095372 L44.7888563,30.0168032 L44.7888563,23.3966535 C44.7888563,16.9787998 41.708953,10.9508039 36.5083862,7.19009251 L29.9036863,2.41400351 C25.998016,-0.410323045 20.8295159,-0.778366009 16.5630499,1.46403209 C12.2802742,3.7150023 9.59824047,8.15456029 9.59824047,12.9928486 L9.59824047,19.0349681 Z" id="Path-7" fill="url(#linearGradient-6)"></path>
                    <path d="M34.5249267,38.802244 L35.3645393,39.3053107 C36.2488816,39.8351778 37.3953248,39.5478189 37.925192,38.6634767 C38.0988791,38.3735948 38.1906158,38.0420003 38.1906158,37.7040673 C38.1906158,35.6219055 37.2434011,33.6528197 35.616623,32.3532079 L34.5249267,31.4810659 L34.5249267,38.802244 Z" id="Path-9" fill="#FFDA99"></path>
                    <path d="M12.5307918,19.0703818 L11.6911792,18.5673151 C10.8068369,18.037448 9.66039365,18.3248069 9.13052651,19.2091492 C8.95683937,19.499031 8.86510264,19.8306255 8.86510264,20.1685585 C8.86510264,22.2507203 9.81231734,24.2198061 11.4390954,25.5194179 L12.5307918,26.3915599 L12.5307918,19.0703818 Z" id="Path-9-Copy" fill="#FFE2B4"></path>
                </g>
                <g id="Coin" transform="translate(24.677419, 0.000000)">
                    <g id="Group" transform="translate(33.216820, 35.798205) rotate(20.000000) translate(-33.216820, -35.798205) translate(8.716820, 6.798205)">
                        <path d="M28.5375535,56.147112 C40.5365022,59.1305126 49.0837436,48.8167028 47.6283515,33.1712027 C46.1729594,17.5926722 35.2660612,3.40483724 23.2671125,1.42115665 C11.2681638,-0.562523946 2.72092239,9.59869608 4.17631448,24.1775065 C5.63170656,38.8232866 16.5386048,53.1637113 28.5375535,56.147112 Z" id="Oval-Copy" fill="#E1B606" fill-rule="nonzero"></path>
                        <path d="M35.8890637,55.6805665 C45.3306783,50.4594961 49.5663548,42.6337942 48.5960934,32.2034607 C47.1407014,16.6249303 36.2338031,2.4370953 24.2348544,0.45341471 C16.2355553,-0.869039018 10.285516,1.41097932 6.38473643,7.29346971 L35.8890637,55.6805665 Z" id="Oval-Copy-2" fill="#E1B606" fill-rule="nonzero"></path>
                        <path d="M24.9970342,57.3272851 C36.9959829,60.3106857 45.5432243,49.9968759 44.0878322,34.3513758 C42.6324401,18.7728453 31.7255419,4.58501033 19.7265932,2.60132974 C7.72764453,0.617649146 -0.819596882,10.7788692 0.635795203,25.3576796 C2.09118729,40.0034597 12.9980855,54.3438844 24.9970342,57.3272851 Z" id="Oval" fill="url(#linearGradient-7)" fill-rule="nonzero"></path>
                        <path d="M23.9909334,53.3211226 C34.3426792,55.8949652 41.7165643,46.9970243 40.4609669,33.4993218 C39.2053695,20.0593954 29.7957587,7.81925135 19.444013,6.10788832 C9.09226718,4.3965253 1.71838199,13.1628238 2.97397939,25.7402706 C4.2295768,38.3754936 13.6391876,50.7472801 23.9909334,53.3211226 Z" id="Oval-Copy-3" stroke="#F5A623" stroke-width="2"></path>
                    </g>
                    <g id="Etherium" transform="translate(22.258065, 19.354839)" fill-rule="nonzero">
                        <path d="M8.26693548,0.72449518 C8.26693548,4.30514034 8.26693548,7.9341726 8.26693548,11.5148178 C8.26693548,11.5632049 8.26693548,11.6599791 8.26693548,11.7083661 C8.26693548,11.7567532 8.22580645,11.7878339 8.18467742,11.7705275 C7.89677419,11.7945439 7.65,11.8358666 7.36209677,11.859883 C6.99193548,11.8976736 6.58064516,11.9181578 6.21048387,12.0043355 C5.75806452,12.0559003 5.30564516,12.1074652 4.85322581,12.1590301 C4.48306452,12.1968207 4.11290323,12.2346113 3.74274194,12.2724019 C3.29032258,12.3239667 2.83790323,12.3755316 2.38548387,12.4270965 C2.01532258,12.4648871 1.64516129,12.5026777 1.23387097,12.571549 C0.945967742,12.5955653 0.616935484,12.6506623 0.329032258,12.6746787 C0.287903226,12.6573723 0.287903226,12.7057594 0.246774194,12.6400658 C0.246774194,12.6400658 0.246774194,12.6400658 0.205645161,12.6227594 C0.329032258,12.4327432 0.452419355,12.2911141 0.575806452,12.1010978 C1.23387097,11.071549 1.93306452,10.0593065 2.59112903,9.02975759 C3.29032258,7.92074093 4.03064516,6.82903068 4.72983871,5.72001402 C5.38790323,4.69046513 6.04596774,3.66091624 6.70403226,2.67975444 C7.19758065,1.91968955 7.69112903,1.20801175 8.14354839,0.430640436 C8.22580645,0.465253276 8.22580645,0.416866179 8.26693548,0.4341726 C8.26693548,0.530946793 8.26693548,0.627720987 8.26693548,0.72449518 Z" id="Shape" fill="#C0AFFE"></path>
                        <path d="M16.2459677,19.3722633 C15.6290323,19.5965379 14.9709677,19.7551191 14.3540323,19.9310066 C12.3387097,20.4862179 10.3645161,21.0103484 8.34919355,21.5655596 C8.30806452,21.5482532 8.30806452,21.5966403 8.26693548,21.5793339 C8.22580645,21.5620275 8.22580645,21.5136404 8.22580645,21.5136404 C8.22580645,21.4652533 8.22580645,21.4168662 8.22580645,21.3684791 C8.22580645,18.2233178 8.22580645,15.0781565 8.22580645,11.9329952 C8.22580645,11.8846081 8.22580645,11.836221 8.22580645,11.7878339 C8.22580645,11.7394468 8.26693548,11.7567532 8.30806452,11.7740597 C8.47258065,11.9400595 8.63709677,12.1060594 8.84274194,12.2893657 C9.33629032,12.7873653 9.87096774,13.2542843 10.3645161,13.7522839 C10.8169355,14.18459 11.2282258,14.5995897 11.6806452,14.9835087 C12.1330645,15.4158148 12.5443548,15.8308145 12.9967742,16.2631206 C13.3669355,16.6124268 13.7782258,16.9790393 14.1483871,17.3767326 C14.5185484,17.7260388 14.9298387,18.0926514 15.3,18.4903446 C15.5879032,18.7566509 15.8758065,19.0713442 16.2048387,19.3549568 C16.2048387,19.3065697 16.2048387,19.3549568 16.2459677,19.3722633 Z" id="Shape" fill="#685A9F"></path>
                        <path d="M8.26693548,31.0632049 C8.22580645,31.0458984 8.22580645,31.0458984 8.18467742,30.9802049 C7.36209677,29.2792378 6.58064516,27.6439642 5.75806452,25.9429971 C4.93548387,24.24203 4.11290323,22.5410629 3.29032258,20.8400958 C2.50887097,19.2048222 1.68629032,17.5522422 0.90483871,15.8685815 C0.699193548,15.4433397 0.493548387,15.0180979 0.287903226,14.5928561 C0.287903226,14.544469 0.246774194,14.5271626 0.246774194,14.4787755 C0.287903226,14.4960819 0.287903226,14.544469 0.329032258,14.5617755 C1.43951613,15.8032423 2.59112903,17.0620157 3.7016129,18.3034825 C4.9766129,19.7593364 6.29274194,21.1841096 7.56774194,22.6399635 C7.7733871,22.8716568 8.02016129,23.1206567 8.22580645,23.3523501 C8.26693548,23.3696565 8.26693548,23.4180436 8.26693548,23.4664307 C8.26693548,23.5148178 8.26693548,23.5632049 8.26693548,23.611592 C8.26693548,26.0309468 8.26693548,28.4019145 8.26693548,30.8212694 C8.26693548,30.8696565 8.26693548,30.9664307 8.26693548,31.0632049 Z" id="Shape" fill="#C0AFFE"></path>
                        <path d="M0.287903226,12.7057594 C0.699193548,12.6368881 1.11048387,12.6164039 1.52177419,12.5475326 C2.05645161,12.4821935 2.59112903,12.4168544 3.12580645,12.3515152 C3.53709677,12.282644 3.9483871,12.2621598 4.35967742,12.1932885 C4.93548387,12.0968687 5.55241935,12.0661424 6.12822581,11.9697226 C6.53951613,11.9492384 6.95080645,11.8803672 7.36209677,11.859883 C7.65,11.8358666 7.93790323,11.8118503 8.22580645,11.7394468 C8.26693548,11.7567532 8.26693548,11.7083661 8.30806452,11.7256726 C8.30806452,11.7256726 8.30806452,11.7256726 8.30806452,11.7740597 C8.30806452,11.8224468 8.30806452,11.8224468 8.30806452,11.8708339 C8.30806452,15.0643822 8.30806452,18.2579306 8.30806452,21.451479 C8.30806452,21.4998661 8.30806452,21.5482532 8.30806452,21.5966403 C8.26693548,21.627721 8.26693548,21.5793339 8.22580645,21.5620275 C8.10241935,21.413334 7.97903226,21.3130277 7.89677419,21.1816406 C5.38790323,18.3840135 2.87903226,15.5863864 0.37016129,12.7887593 C0.329032258,12.7230658 0.287903226,12.7057594 0.287903226,12.7057594 Z" id="Shape" fill="#8B7BC8"></path>
                        <path d="M16.2048387,21.1936665 C16.2048387,21.2420536 16.2048387,21.2420536 16.1637097,21.2731343 C13.7782258,24.2371039 11.3927419,27.1526863 9.00725806,30.1166559 C8.76048387,30.4483013 8.51370968,30.7315595 8.26693548,31.0632049 C8.26693548,31.0632049 8.26693548,31.0632049 8.26693548,31.0148178 C8.26693548,30.9664307 8.26693548,30.9664307 8.26693548,30.9180436 C8.26693548,28.4503016 8.26693548,25.9825597 8.26693548,23.5148178 C8.26693548,23.4664307 8.26693548,23.4180436 8.26693548,23.3696565 C8.8016129,23.2075432 9.33629032,23.0454298 9.87096774,22.9317036 C11.9685484,22.3627182 14.066129,21.7937327 16.1637097,21.2247472 C16.1637097,21.1763601 16.2048387,21.1936665 16.2048387,21.1936665 Z" id="Shape" fill="#9787D2"></path>
                        <path d="M8.26693548,11.6599791 C8.26693548,7.9825597 8.26693548,4.25675324 8.26693548,0.57933389 C8.26693548,0.530946793 8.26693548,0.482559696 8.26693548,0.482559696 C10.8991935,6.71920284 13.5314516,12.955846 16.1637097,19.1924891 C16.2048387,19.2581826 16.2459677,19.3238762 16.2459677,19.3722633 C16.0814516,19.2062634 15.9169355,19.0402635 15.7112903,18.8569572 C15.5056452,18.6736509 15.3,18.4419575 15.0943548,18.2586512 C14.9709677,18.1583449 14.8475806,18.0096514 14.6830645,17.8920387 C14.4774194,17.7087324 14.2306452,17.4597325 14.025,17.2764263 C13.9016129,17.1761199 13.7782258,17.0274264 13.6548387,16.9271201 C13.3669355,16.6608139 13.0790323,16.3945076 12.791129,16.1282014 C12.6266129,15.9622015 12.5032258,15.8618952 12.3387097,15.6958953 C12.1330645,15.512589 11.9274194,15.2808956 11.7217742,15.0975893 C11.5983871,14.997283 11.475,14.8485895 11.3516129,14.7482831 C11.0637097,14.4819769 10.7758065,14.2156707 10.4879032,13.9493644 C10.3233871,13.7833646 10.2,13.6830582 10.0354839,13.5170583 C9.82983871,13.333752 9.62419355,13.1020587 9.41854839,12.9187524 C9.29516129,12.7700589 9.13064516,12.6524461 9.00725806,12.5037527 C8.76048387,12.2547529 8.51370968,12.0057531 8.26693548,11.7567532 C8.26693548,11.7083661 8.26693548,11.6599791 8.26693548,11.6599791 Z" id="Shape" fill="#9787D2"></path>
                    </g>
                </g>
            </g>
        </g>
    </g>
</svg>