<?xml version="1.0" encoding="UTF-8"?>
<svg width="150px" height="161px" viewBox="0 0 150 161" version="1.1" xmlns="http://www.w3.org/2000/svg" xmlns:xlink="http://www.w3.org/1999/xlink">
    <!-- Generator: Sketch 49.3 (51167) - http://www.bohemiancoding.com/sketch -->
    <title>Wallet</title>
    <desc>Created with Sketch.</desc>
    <defs>
        <linearGradient x1="100%" y1="43.0700852%" x2="50%" y2="55.7319114%" id="linearGradient-1">
            <stop stop-color="#CFC3FD" offset="0%"></stop>
            <stop stop-color="#CACDF8" offset="100%"></stop>
        </linearGradient>
        <linearGradient x1="0%" y1="27.2031637%" x2="100%" y2="72.7968363%" id="linearGradient-2">
            <stop stop-color="#E3D7F6" offset="0%"></stop>
            <stop stop-color="#C2C8FA" offset="100%"></stop>
        </linearGradient>
        <linearGradient x1="36.4358603%" y1="0%" x2="66.6420118%" y2="100%" id="linearGradient-3">
            <stop stop-color="#D2CAFB" offset="0%"></stop>
            <stop stop-color="#DDD3F4" offset="100%"></stop>
        </linearGradient>
        <linearGradient x1="0%" y1="41.6591851%" x2="100%" y2="61.0405115%" id="linearGradient-4">
            <stop stop-color="#7B71D0" offset="0%"></stop>
            <stop stop-color="#2D3189" offset="100%"></stop>
        </linearGradient>
        <linearGradient x1="50%" y1="0%" x2="50%" y2="100%" id="linearGradient-5">
            <stop stop-color="#E1D6FA" offset="0%"></stop>
            <stop stop-color="#C1AFFF" offset="100%"></stop>
        </linearGradient>
        <linearGradient x1="25.2772249%" y1="45.3910424%" x2="63.0507249%" y2="87.8054813%" id="linearGradient-6">
            <stop stop-color="#CBBBFE" offset="0%"></stop>
            <stop stop-color="#859CFF" offset="100%"></stop>
        </linearGradient>
        <linearGradient x1="35.5919499%" y1="45.3910424%" x2="57.6057602%" y2="87.8054813%" id="linearGradient-7">
            <stop stop-color="#CBBBFE" offset="0%"></stop>
            <stop stop-color="#859CFF" offset="100%"></stop>
        </linearGradient>
        <linearGradient x1="45.4121069%" y1="0%" x2="55.9765361%" y2="86.8183268%" id="linearGradient-8">
            <stop stop-color="#F3F0FA" offset="0%"></stop>
            <stop stop-color="#C4B4FD" offset="100%"></stop>
        </linearGradient>
        <linearGradient x1="22.5569386%" y1="17.9054752%" x2="71.2791314%" y2="82.4625691%" id="linearGradient-9">
            <stop stop-color="#F9E422" offset="0%"></stop>
            <stop stop-color="#F1C40F" offset="100%"></stop>
        </linearGradient>
    </defs>
    <g id="Page-1" stroke="none" stroke-width="1" fill="none" fill-rule="evenodd">
        <g id="Wallet">
            <g id="Base" transform="translate(0.000000, 62.612903)">
                <path d="M75,97.7419355 C116.421356,97.7419355 150,78.028022 150,53.7096774 C150,51.0435176 150,47.3338402 150,42.5806452 L0,42.5806452 C5.20417043e-16,46.6159173 7.80625564e-16,50.3255948 7.80625564e-16,53.7096774 C7.80625564e-16,78.028022 33.5786438,97.7419355 75,97.7419355 Z" id="Oval-3-Copy-4" fill="#3D42A2" fill-rule="nonzero"></path>
                <g id="Oval-3-Copy-3">
                    <g id="path-2-link" fill="#000000" fill-rule="nonzero">
                        <ellipse id="path-2" cx="75" cy="44.0322581" rx="75" ry="44.0322581"></ellipse>
                    </g>
                    <g id="path-2-link" fill="#F9F6FF">
                        <ellipse id="path-2" cx="75" cy="44.0322581" rx="75" ry="44.0322581"></ellipse>
                    </g>
                </g>
            </g>
            <g id="Lock" transform="translate(37.258065, 0.000000)" fill-rule="nonzero">
                <path d="M58.5483871,75.1935484 L75.483871,66 L75.483871,109.036607 C75.483871,112.366101 73.7723099,115.461798 70.9525948,117.232317 L54.6774194,127.451613 L58.5483871,75.1935484 Z" id="Path-4" fill="url(#linearGradient-1)"></path>
                <path d="M0,41.8064516 L58.5483871,75.6774194 L58.1680628,121.31634 C58.157653,122.565508 57.825008,123.790844 57.2023121,124.873793 C55.2041815,128.348803 50.7673245,129.54605 47.2923147,127.54792 L12.1337631,107.331753 C4.62741598,103.015603 6.5323538e-16,95.0169885 3.43811001e-15,86.3582129 L0,41.8064516 Z" id="Path-2" fill="url(#linearGradient-2)"></path>
                <polygon id="Path-3" fill="url(#linearGradient-3)" points="0 41.8064516 16.9354839 32.1290323 75.483871 66 58.5483871 75.6774194"></polygon>
                <path d="M31.1242933,89.2923726 L33.7585091,102.808137 C34.3072147,105.623463 32.7948478,107.265937 30.3805431,106.476704 C30.0545623,106.370142 29.7213174,106.221395 29.3870237,106.033238 L24.8055446,103.454558 C22.329672,102.061017 20.3225806,98.8476016 20.3225806,96.2771952 C20.3225806,95.96392 20.3530476,95.6685934 20.4135179,95.3957085 L22.8267421,84.5055331 C21.2994658,82.3661673 20.3225806,79.8569349 20.3225806,77.6606656 C20.3225806,73.8050561 23.3332176,72.3740003 27.0470265,74.4643131 C30.7608354,76.5546259 33.7714724,81.3747483 33.7714724,85.2303578 C33.7714724,87.4944333 32.7333368,88.9224678 31.1242933,89.2923726 Z" id="Combined-Shape" fill="url(#linearGradient-4)"></path>
                <path d="M27.0967742,43.2177714 C27.0967742,46.6918206 24.2805008,49.508094 20.8064516,49.508094 C17.3324024,49.508094 14.516129,46.6918206 14.516129,43.2177714 L14.516129,18.6296174 C14.516129,3.8954759 26.5058122,-3.97630753 39.6193766,2.44482761 C50.6585714,7.85023529 59.1900832,21.8065801 59.1900832,34.3442978 L59.1900832,59.7068818 C59.1900832,63.1809311 56.3738098,65.9972044 52.8997606,65.9972044 C49.4257114,65.9972044 46.609438,63.1809311 46.609438,59.7068818 L46.609438,34.3442978 C46.609438,26.5659851 40.7722859,17.0172311 34.0868356,13.7436604 C31.6438256,12.547426 29.9403809,12.5391588 28.9587233,13.1836626 C27.8989881,13.8794279 27.0967742,15.6605599 27.0967742,18.6296174 L27.0967742,43.2177714 Z" id="Rectangle-2" fill="url(#linearGradient-5)"></path>
            </g>
            <g id="Phone" transform="translate(46.096774, 91.161290)">
                <g id="Group">
                    <g id="Path-20" transform="translate(0.000000, 1.000000)">
                        <g id="path-10-link" fill="#000000" fill-rule="nonzero">
                            <path d="M3.24307028,42.4256288 C1.754424,41.5590341 0.838709677,39.96639 0.838709677,38.2438761 L0.838709677,33.4442425 C0.838709677,31.7100909 1.76673427,30.1085364 3.27127767,29.2461961 L52.7732858,0.87374994 C54.2737506,0.01374728 56.1191353,0.01995906 57.6137765,0.8900436 L81.1762846,14.6066292 C82.6649308,15.4732239 83.5806452,17.0658681 83.5806452,18.788382 L83.5806452,23.5880156 C83.5806452,25.3221672 82.6526206,26.9237217 81.1480772,27.786062 L31.6460691,56.1585081 C30.1456042,57.0185108 28.3002195,57.012299 26.8055783,56.1422145 L3.24307028,42.4256288 Z" id="path-10"></path>
                        </g>
                        <g id="path-10-link" fill="url(#linearGradient-7)">
                            <path d="M3.24307028,42.4256288 C1.754424,41.5590341 0.838709677,39.96639 0.838709677,38.2438761 L0.838709677,33.4442425 C0.838709677,31.7100909 1.76673427,30.1085364 3.27127767,29.2461961 L52.7732858,0.87374994 C54.2737506,0.01374728 56.1191353,0.01995906 57.6137765,0.8900436 L81.1762846,14.6066292 C82.6649308,15.4732239 83.5806452,17.0658681 83.5806452,18.788382 L83.5806452,23.5880156 C83.5806452,25.3221672 82.6526206,26.9237217 81.1480772,27.786062 L31.6460691,56.1585081 C30.1456042,57.0185108 28.3002195,57.012299 26.8055783,56.1422145 L3.24307028,42.4256288 Z" id="path-10"></path>
                        </g>
                    </g>
                    <path d="M3.20004342,30.1646495 L52.6031583,1.4136564 C54.1050721,0.539591809 55.9603533,0.538026242 57.4637401,1.40955483 L81.2122499,15.1768069 C83.524203,16.5170695 84.3119137,19.4777753 82.9716511,21.7897284 C82.5499639,22.5171387 81.9460091,23.1221137 81.2193114,23.5450279 L31.8161965,52.296021 C30.3142827,53.1700856 28.4590015,53.1716512 26.9556147,52.3001226 L3.20710489,38.5328705 C0.895151845,37.1926079 0.10744113,34.2319021 1.44770377,31.9199491 C1.86939094,31.1925387 2.47334575,30.5875637 3.20004342,30.1646495 Z" id="Path-5" fill="url(#linearGradient-8)" fill-rule="nonzero"></path>
                </g>
                <path d="M34.8428036,19.5339723 L53.7137713,30.1694145 C54.3818577,30.5459397 54.6188038,31.3927646 54.2430052,32.060851 C53.8672066,32.7289374 53.0209706,32.9652945 52.3528842,32.5887693 L33.4819165,21.9533271 C32.8138301,21.576802 32.576884,20.729977 32.9526826,20.0618906 C33.3284812,19.3938042 34.1747172,19.1574471 34.8428036,19.5339723 Z" id="Rectangle" fill="#192F68" fill-rule="nonzero"></path>
                <g id="Coin-Copy" transform="translate(44.209677, 22.096774) rotate(0.800000) translate(-44.209677, -22.096774) translate(34.709677, 12.096774)">
                    <path d="M2.40579226,12.1822374 C2.08835606,11.2059022 1.87004037,10.2007276 1.76977436,9.19173905 C1.21672537,3.65179111 4.46467711,-0.209472506 9.02427761,0.544326119 C13.5838781,1.29812474 17.7284994,6.68950203 18.2815484,12.6093436 C18.569402,15.7037765 17.8275478,18.2493456 16.4069885,19.8192535 L2.40579226,12.1822374 Z" id="Combined-Shape" fill="#E1B606" fill-rule="nonzero"></path>
                    <path d="M10.4171661,16.5520777 L2.24123276,3.14354702 C3.72352899,0.908200669 5.98454394,0.0417937023 9.02427761,0.544326119 C13.5838781,1.29812474 17.7284994,6.68950203 18.2815484,12.6093436 C18.5459605,15.4517793 17.7929524,17.78518 16.0225243,19.6095458 L10.4171661,16.5520777 Z" id="Combined-Shape" fill="#E1B606" fill-rule="nonzero"></path>
                    <path d="M0.681363436,11.2416399 C0.564263547,10.7114081 0.477654769,10.1763449 0.424377034,9.64020483 C-0.128671958,4.10025688 3.11927978,0.238993269 7.67888029,0.992791894 C12.2384808,1.74659052 16.3831021,7.13796781 16.9361511,13.0578094 C17.1774588,15.6518733 16.6951422,17.8602247 15.6959814,19.4314315 L0.681363436,11.2416399 Z" id="Combined-Shape" fill="url(#linearGradient-9)" fill-rule="nonzero"></path>
                    <path d="M14.0676078,17.9621943 C14.8872945,16.6727889 15.2535402,14.8599165 15.0601101,12.7805378 C14.6028872,7.88641979 11.1805567,3.4287245 7.48994614,2.81858833 C3.91092669,2.22690054 1.36366136,5.26075482 1.81043642,9.73614656 C1.86659259,10.3012526 1.96831871,10.871512 2.11357573,11.440546 L14.0676078,17.9621943 Z" id="Oval-Copy-3" stroke="#F5A623"></path>
                </g>
            </g>
        </g>
    </g>
</svg>